<svg width="340" height="339" viewBox="0 0 340 339" fill="none" xmlns="http://www.w3.org/2000/svg">
<path fill-rule="evenodd" clip-rule="evenodd" d="M153 0.63898C151.625 0.84098 147.125 1.49697 143 2.09597C116.721 5.91397 88.4651 18.226 65.5661 35.837C51.9151 46.334 35.4051 64.876 25.3221 81.031C14.9251 97.688 5.52509 122.972 2.46609 142.5C-1.08391 165.171 0.798077 195.051 7.12408 216.475C9.69408 225.18 12.9791 233 14.0641 233C16.1271 233 15.8261 230.361 12.6691 220.793C7.93809 206.456 7.32509 203.524 5.47309 186.392C3.96709 172.458 3.96509 169.956 5.45109 154.21C7.75609 129.786 12.5311 113.549 23.7441 92C36.7271 67.049 57.1771 45.079 82.0001 29.413C108.932 12.416 136.256 4.65297 169.5 4.55197C191.495 4.48497 211.583 7.81598 227.5 14.169C235.996 17.561 253.279 26.087 257.8 29.117C260.165 30.703 262.49 32 262.967 32C263.443 32 263.983 32.364 264.167 32.808C264.35 33.253 266.66 35.09 269.3 36.89C271.939 38.691 275.352 41.365 276.884 42.832C278.415 44.299 281.656 47.332 284.084 49.572C291.674 56.571 296.419 62.12 304.905 73.922C312.153 84.002 322.42 102.897 324.509 110C324.914 111.375 325.601 112.95 326.037 113.5C327.737 115.646 332.264 134.041 333.617 144.305C337.369 172.759 333.921 205.842 324.928 227.67C323.855 230.274 323.855 231.12 324.924 232.409C326.815 234.687 327.588 233.758 330.055 226.239C331.271 222.533 332.668 218.99 333.159 218.366C333.651 217.742 334.751 213.467 335.604 208.866C336.457 204.265 337.786 197.125 338.558 193C339.397 188.513 339.969 178.825 339.98 168.888C339.997 154.785 339.607 150.404 337.398 139.888C333.743 122.485 333.473 121.45 330.243 112.5C312.88 64.386 275.853 27.357 227.5 9.75197C215.454 5.36697 206.949 3.31597 193 1.43297C183.595 0.163971 159.495 -0.31402 153 0.63898ZM146.834 52.047C122.27 57.283 104.387 66.819 86.1791 84.393C71.7121 98.356 61.3971 115.292 55.6601 134.5C51.9451 146.938 51.5001 150.712 51.5401 169.5C51.5731 185.817 51.8931 189.705 53.8001 197.033C58.3411 214.479 65.6311 230.634 69.3711 231.536C70.5421 231.818 116.683 231.926 171.906 231.775L272.311 231.5L276.093 224.5C282.267 213.07 285.659 203.237 287.893 190.292C292.23 165.16 289.422 141.73 279.52 120.439C270.273 100.557 254.578 81.834 237.795 70.668C227.13 63.571 212.234 56.546 203.587 54.533C199.964 53.69 194.095 52.325 190.544 51.5C181.321 49.357 158.092 49.648 146.834 52.047ZM209.08 109.75C212.044 114.563 214.961 119.4 215.562 120.5C216.163 121.6 221.394 130.375 227.187 140C232.98 149.625 238.685 159.3 239.865 161.5C241.045 163.7 244.701 169.775 247.989 175C256.401 188.366 261.308 197.025 260.772 197.561C260.52 197.813 238.344 197.902 211.492 197.76L162.67 197.5L167.085 194.525C169.513 192.889 174.673 189.021 178.55 185.929C190.663 176.271 188.754 176.856 207.072 177.197C217.651 177.394 223.454 177.138 223.678 176.465C223.868 175.896 221.632 171.621 218.709 166.965C215.786 162.309 212.068 156.041 210.447 153.035C208.826 150.029 206.968 146.99 206.319 146.282C205.669 145.574 204.182 143.084 203.014 140.747C201.847 138.411 200.094 135.445 199.12 134.156L197.35 131.812L182.925 143.057C174.991 149.241 166.025 156.286 163 158.712C155.947 164.369 156.719 163.76 141.499 175.682C134.349 181.283 125.125 188.588 121 191.916L113.5 197.966L96.5501 197.983C86.6631 197.993 79.9961 197.631 80.5501 197.114C81.4831 196.245 94.5521 185.876 121.105 164.937C128.472 159.127 136.3 153.055 138.5 151.443C140.7 149.83 142.725 148.242 143 147.914C143.275 147.585 150.025 142.21 158 135.97C172.86 124.343 191.006 110.031 198.217 104.25C200.447 102.463 202.591 101 202.981 101C203.371 101 206.116 104.938 209.08 109.75ZM151.995 233.754C23.0601 233.994 15.8731 234.1 16.1911 235.754C16.5091 237.405 24.8821 237.514 170.334 237.753L324.14 238.006L323.82 235.753C323.502 233.513 323.401 233.5 305.818 233.5C296.093 233.5 226.872 233.614 151.995 233.754ZM31.7611 260.062C26.0021 263.103 24.0001 267.994 24.0001 279.024V288.127L27.2501 287.813C29.9361 287.554 30.5001 287.08 30.5001 285.077C30.5001 283.326 31.1941 282.479 33.0001 282.025C34.9821 281.527 44.1021 281.463 48.2501 281.918C48.6631 281.963 49.0001 283.35 49.0001 285C49.0001 287.667 49.3331 288 52.0001 288H55.0001V274.2C55.0001 264.8 54.6171 260.017 53.8001 259.2C51.7261 257.126 36.1711 257.734 31.7611 260.062ZM62.4871 260.422C60.1421 262.767 60.0001 263.531 60.0001 273.8C60.0001 288.215 59.7601 288 75.8291 288C87.9861 288 88.0001 287.997 88.0001 285.617C88.0001 282.574 85.9991 282.031 74.7111 282.014L65.9221 282L66.2111 273.25L66.5001 264.5L77.0001 264C87.4001 263.505 87.5001 263.476 87.5001 261V258.5L76.2371 258.217C65.3921 257.945 64.8831 258.026 62.4871 260.422ZM92.6181 259.554C92.2781 260.439 92.0001 266.252 92.0001 272.471C92.0001 288.085 92.0651 288.155 106.519 288.128C112.559 288.117 118.092 288.084 118.816 288.054C119.654 288.02 120.018 286.999 119.816 285.25L119.5 282.5L109 282L98.5001 281.5L98.3841 276.5C98.3841 276.5 100.394 276.5 108 276.5C116.476 276.5 118.5 276.5 118.5 273C118.5 270.975 116.194 269.897 107.664 270.085C102.624 270.196 98.6131 269.997 98.7501 269.643C98.8871 269.289 99.0001 267.875 99.0001 266.5V264H109.566H120.133L119.816 261.25L119.5 258.5L106.368 258.222C95.0531 257.982 93.1501 258.166 92.6181 259.554ZM125.923 260.923C122.181 264.665 121.964 269.59 125.379 273.274C127.814 275.902 131.258 276.753 141.5 277.255C145.752 277.463 146.5 277.799 146.5 279.5C146.5 281.342 145.75 281.52 137 281.749C124.442 282.078 123 282.46 123 285.458C123 287.57 123.59 287.966 127.65 288.575C130.207 288.958 136.17 288.986 140.9 288.636C148.45 288.078 149.775 287.689 151.75 285.445C153.019 284.003 154 281.576 154 279.878C154 272.716 149.615 270 138.05 270C130.226 270 130 269.933 130 267.607C130 264.447 131.499 264 142.082 264H151V261V258H139.923C129.013 258 128.802 258.044 125.923 260.923ZM158.956 260.89C155.836 264.01 155.246 267.252 157.071 271.257C158.85 275.16 161.971 276.394 171.5 276.963C179.654 277.45 180.5 277.688 180.5 279.5C180.5 281.355 179.629 281.545 168.5 282.114C161.9 282.452 156.387 282.79 156.25 282.864C156.113 282.939 156 284.105 156 285.455C156 288.661 159.89 289.435 172.643 288.768C180.734 288.345 182.429 287.945 184.539 285.963C188.681 282.073 187.4 273.415 182.343 271.11C181.002 270.5 176.313 270 171.922 270C165.717 270 163.808 269.663 163.357 268.487C162.1 265.213 164.867 264.08 174.833 263.785C180.449 263.619 184.371 263.785 184.371 263.785L184.5 261.5L184.5 258.5L173.206 258.217C173.206 258.217 164 258.217 162.5 258.5C160.86 258.809 158.956 260.89 158.956 260.89ZM193.777 260.908C190.696 263.66 190.504 264.244 190.157 271.871C189.557 285.101 193.524 289.105 207.459 289.333C218.001 289.505 222.99 284.325 222.996 273.2C223.003 261.312 219.205 258 205.565 258C197.556 258 196.831 258.179 193.777 260.908ZM238 258.905C238 261.117 252.088 288.82 253.486 289.356C255.274 290.042 258.624 285 259 284.5C259.376 284 260 283 260 283C260.624 282.5 261 280.844 261.5 280C262 279.156 263.25 276.242 266 270.808C268.75 265.374 271 260.27 271 259.464C271 258.477 269.934 258 267.728 258C264.576 258 264.268 258.377 259.376 268.216L254.296 278.432L250.648 270.744C248.642 266.516 247 262.664 247 262.183C247 261.703 246.177 260.565 245.171 259.655C243.243 257.91 238 257.362 238 258.905ZM274 273.5V289.127L277.25 288.813L280.5 288.5V273.5V258.5L277.25 258.187L274 257.873V273.5ZM287.221 260.636C285.069 263.09 284.958 263.941 285.221 275.868L285.5 288.5H288.5H291.5L291.782 276.71L292.064 264.92L300.282 265.21L308.5 265.5L308.807 269.75C309.02 272.682 308.71 274.05 307.807 274.16C306.594 274.309 305.033 274.4 296.187 274.837C293.078 274.99 292.893 275.201 293.187 278.25C293.484 281.332 293.732 281.517 298 281.823C305.469 282.359 311.001 281.102 313.621 278.274C315.57 276.172 316 274.637 316 269.777C316 264.555 315.651 263.497 313.077 260.923C310.221 258.067 309.918 258 299.827 258.018C289.968 258.035 289.397 258.154 287.221 260.636ZM48.5001 269.5V274.5L40.0861 274.793C30.7481 275.118 29.5911 274.472 31.2081 269.833C32.6191 265.786 36.4301 263.987 43.0001 264.266L48.5001 264.5V269.5ZM214.171 265.655C215.574 266.924 216 268.776 216 273.598C216 281.438 214.314 283 205.85 283C200.819 283 199.889 282.675 197.974 280.25C196.184 277.983 195.881 276.552 196.246 272.1C196.552 268.372 197.261 266.282 198.536 265.35C201.244 263.37 211.875 263.577 214.171 265.655ZM123.083 308.981C41.9571 309.377 16.5721 309.783 16.2691 310.693C16.0371 311.39 17.2471 312.13 19.1861 312.476C21.0091 312.801 90.2251 312.939 173 312.783C322.739 312.501 323.5 312.49 323.5 310.5C323.5 308.529 322.827 308.5 276.5 308.481C250.65 308.471 181.612 308.696 123.083 308.981ZM85.5761 314.876C84.8021 316.13 106.017 326.461 115.5 329.447C130.486 334.167 133.5 334.87 145.458 336.435C173.851 340.151 203.859 337.276 228.151 328.514C238.935 324.623 255 316.695 255 315.262C255 313.001 250.095 313.927 242.913 317.544C221.903 328.124 195.897 334 170.079 334C143.678 334 120.156 328.774 97.7171 317.922C89.5901 313.992 86.5881 313.239 85.5761 314.876Z" fill="#1E212B"/>
</svg>
